<?xml version="1.0" standalone="no"?><!DOCTYPE svg PUBLIC "-//W3C//DTD SVG 1.1//EN" "http://www.w3.org/Graphics/SVG/1.1/DTD/svg11.dtd"><svg t="1694866925916" class="icon" viewBox="0 0 1024 1024" version="1.1" xmlns="http://www.w3.org/2000/svg" p-id="11016" width="16" height="16" xmlns:xlink="http://www.w3.org/1999/xlink"><path d="M510.755035 0c-282.064468 0-510.755035 228.690567-510.755035 510.755035s228.690567 510.755035 510.755035 510.755035 510.755035-228.690567 510.755035-510.755035-228.690567-510.755035-510.755035-510.755035zM863.559075 361.55072c-5.235239-4.213729-9.576657-7.469792-10.917389-8.810524-3.575285-3.575285-37.157429-14.364985-40.732714-13.088098-3.575285 1.213043-26.367729 11.938899-26.367729 15.514184s3.575285 23.877798 7.214415 38.306628c3.575285 14.364985-8.299769 63.461313-14.364985 65.823555-5.937527 2.362242-21.515556 26.367729-26.303884 26.367729-2.426086 0-4.979862-4.405262-7.086726-8.74668 4.852173-14.748052 7.789014-28.602282 4.149885-39.519671-12.83272-38.689694-48.904795-59.311428-51.586258-67.036598-2.61762-7.72517-36.072074-18.004115-43.861089 0-7.661326 18.004115-7.661326 28.219216-36.00823 28.219216s15.45034-33.518299 28.346904-69.462685c12.83272-35.944386 23.17551-10.470478 15.45034-28.538438s10.278945-20.621735 15.45034-30.964524c5.10755-10.278945 20.621735 2.553775 28.346904 0 7.72517-2.61762 28.346904-7.661326 28.346904-28.027683 0-20.302513 5.171395-10.725856 15.45034-26.176196 0.574599-0.893821 2.04302-1.149199 3.128375-1.659954 48.202506 39.264293 86.764512 89.892886 111.344598 147.799738zM127.688759 510.755035c0-177.934285 122.134298-327.521666 286.916641-370.361244 0.127689 0.127689 0.319222 0.191533 0.446911 0.319222 40.158115 23.239354 78.847808-5.10755 40.158115 23.239354-38.625849 28.28306-49.287861 28.28306-40.158115 38.689694 9.193591 10.278945 11.045078 7.661326 19.153314 15.45034 8.172081 7.72517 13.343475 15.45034 18.451026 28.346904 5.10755 12.960409-60.907538 59.311428 18.51487 18.131804 79.422408-41.307313 81.976183-38.689694 94.872748-43.861089 12.960409-5.235239 31.028368 60.588316 31.028368 60.588316l-36.135919 109.556955-63.780535 0c0 0-10.981233-51.586258-13.598853 0-2.553775 51.586258-5.10755 51.586258-2.553775 77.315543 2.553775 25.856974-2.553775 9.448968-41.243469 49.86246-38.625849 40.413492-64.482823 45.584887-72.207993 45.584887s-36.072074-10.215101-25.793129 25.856974c10.278945 36.072074-33.518299 56.693809 10.278945 59.247584 43.861089 2.61762 77.379388-20.621735 77.379388-20.621735s28.346904-4.788328 12.83272 20.813268c-15.45034 25.601596-23.17551 7.533637-41.243469 35.944386-18.131804 28.346904-46.414864 67.291976-85.104558 34.922875-38.689694-32.432945-49.032483-45.265665-56.757653-58.16223-1.979176-3.447596-4.979862-8.172081-8.74668-12.83272-0.063844-0.063844-0.191533-0.255378-0.255378-0.383066-1.085354-1.340732-2.170709-2.681464-3.319908-3.958352-6.895193-8.299769-21.387867-25.793129-21.387867-25.793129s14.301141-14.684207 12.641187-20.047135c-1.723798-5.426772-13.790386-32.3691-12.513498-36.391296 1.340732-4.022196 6.512127-1.340732-0.063844-13.535008-6.639815-12.066588-13.662697-32.3691 0-48.521728 13.598853-16.216472 3.192219-28.410749-7.789014-12.194276s-15.067274 19.791758-17.748737 30.198391c-2.745308 10.278945-1.340732 14.364985-8.108236 18.451026-6.767504 4.022196-16.216472 2.681464-13.535008 10.7897s29.687636-1.340732 9.448968 43.094956c-20.238668 44.563377-16.47185 50.117838-20.174824 55.480766-3.766818 5.426772-14.492674-10.023568-6.512127 12.513498-0.510755 1.596109-0.893821 3.447596-1.340732 5.171395-20.494046-46.925619-32.049878-98.575722-32.049878-152.907288z" fill="#444444" p-id="11017"></path></svg>